<svg xmlns="http://www.w3.org/2000/svg" viewBox="0 0 64 64">
  <defs>
    <linearGradient id="grad1" x1="0%" y1="0%" x2="100%" y2="100%">
      <stop offset="0%" style="stop-color:#8B5CF6;stop-opacity:1" />
      <stop offset="100%" style="stop-color:#06B6D4;stop-opacity:1" />
    </linearGradient>
  </defs>
  <!-- Background circle -->
  <circle cx="32" cy="32" r="30" fill="url(#grad1)"/>
  <!-- Solar panel grid representation -->
  <rect x="12" y="20" width="8" height="6" fill="#FFFFFF" opacity="0.9" rx="1"/>
  <rect x="22" y="20" width="8" height="6" fill="#FFFFFF" opacity="0.9" rx="1"/>
  <rect x="32" y="20" width="8" height="6" fill="#FFFFFF" opacity="0.9" rx="1"/>
  <rect x="42" y="20" width="8" height="6" fill="#FFFFFF" opacity="0.9" rx="1"/>
  <rect x="12" y="28" width="8" height="6" fill="#FFFFFF" opacity="0.9" rx="1"/>
  <rect x="22" y="28" width="8" height="6" fill="#FFFFFF" opacity="0.9" rx="1"/>
  <rect x="32" y="28" width="8" height="6" fill="#FFFFFF" opacity="0.9" rx="1"/>
  <rect x="42" y="28" width="8" height="6" fill="#FFFFFF" opacity="0.9" rx="1"/>
  <rect x="12" y="36" width="8" height="6" fill="#FFFFFF" opacity="0.9" rx="1"/>
  <rect x="22" y="36" width="8" height="6" fill="#FFFFFF" opacity="0.9" rx="1"/>
  <rect x="32" y="36" width="8" height="6" fill="#FFFFFF" opacity="0.9" rx="1"/>
  <rect x="42" y="36" width="8" height="6" fill="#FFFFFF" opacity="0.9" rx="1"/>
  <!-- Sun rays -->
  <circle cx="32" cy="12" r="3" fill="#FFD700" opacity="0.8"/>
  <line x1="32" y1="0" x2="32" y2="8" stroke="#FFD700" stroke-width="1.5" opacity="0.6"/>
  <line x1="0" y1="12" x2="8" y2="12" stroke="#FFD700" stroke-width="1.5" opacity="0.6"/>
  <line x1="64" y1="12" x2="56" y2="12" stroke="#FFD700" stroke-width="1.5" opacity="0.6"/>
</svg>

